<svg id="Layer_1" data-name="Layer 1" xmlns="http://www.w3.org/2000/svg" xmlns:xlink="http://www.w3.org/1999/xlink" viewBox="0 0 1000 1000"><defs><style>.cls-1,.cls-14,.cls-15,.cls-16,.cls-17,.cls-18,.cls-19,.cls-20,.cls-21,.cls-22,.cls-23,.cls-24,.cls-25,.cls-26,.cls-27,.cls-28,.cls-29,.cls-30,.cls-31,.cls-32,.cls-33,.cls-34,.cls-35{fill:none;}.cls-2{fill:url(#radial-gradient);}.cls-3{opacity:0.75;}.cls-4{fill:url(#linear-gradient);}.cls-5{opacity:0.56;}.cls-6{clip-path:url(#clip-path);}.cls-7{fill:#fff;}.cls-8{fill:url(#linear-gradient-2);}.cls-9{clip-path:url(#clip-path-2);}.cls-10{fill:url(#linear-gradient-3);}.cls-11{clip-path:url(#clip-path-3);}.cls-12{fill:#254251;}.cls-13{clip-path:url(#clip-path-4);}.cls-14{stroke:#fff;}.cls-14,.cls-15,.cls-16,.cls-17,.cls-18,.cls-19,.cls-20,.cls-21,.cls-22,.cls-23,.cls-24,.cls-25,.cls-26,.cls-27,.cls-28,.cls-29,.cls-30,.cls-31,.cls-32,.cls-33,.cls-34,.cls-35{stroke-miterlimit:10;}.cls-15{stroke:#f4f9fc;}.cls-16{stroke:#e9f3fa;}.cls-17{stroke:#deedf7;}.cls-18{stroke:#d3e7f4;}.cls-19{stroke:#c8e1f2;}.cls-20{stroke:#bcdbef;}.cls-21{stroke:#b1d5ec;}.cls-22{stroke:#a6cfea;}.cls-23{stroke:#9bc9e7;}.cls-24{stroke:#90c3e4;}.cls-25{stroke:#85bde2;}.cls-26{stroke:#7ab7df;}.cls-27{stroke:#6fb1dc;}.cls-28{stroke:#64abda;}.cls-29{stroke:#59a5d7;}.cls-30{stroke:#4d9fd4;}.cls-31{stroke:#4299d2;}.cls-32{stroke:#3793cf;}.cls-33{stroke:#2c8dcc;}.cls-34{stroke:#2187ca;}.cls-35{stroke:#1681c7;}.cls-36{clip-path:url(#clip-path-5);}.cls-37{clip-path:url(#clip-path-6);}.cls-38{clip-path:url(#clip-path-7);}.cls-39{clip-path:url(#clip-path-8);}.cls-40{clip-path:url(#clip-path-9);}</style><radialGradient id="radial-gradient" cx="500" cy="500" r="500" gradientUnits="userSpaceOnUse"><stop offset="0" stop-color="#8bb6ff"/><stop offset="0.17" stop-color="#82b2fc"/><stop offset="0.46" stop-color="#68a7f5"/><stop offset="0.82" stop-color="#3f96e9"/><stop offset="1" stop-color="#298de2"/></radialGradient><linearGradient id="linear-gradient" x1="442.72" y1="492.22" x2="625.56" y2="492.22" gradientUnits="userSpaceOnUse"><stop offset="0"/><stop offset="1" stop-color="#28008b"/></linearGradient><clipPath id="clip-path"><path class="cls-1" d="M609,438.82a124.13,124.13,0,0,0-107.49-61.9,89.23,89.23,0,0,1,87.8,72.89l.23.21-.18.1a88.64,88.64,0,0,1-30.18,83.78l-.36.31A89.08,89.08,0,0,1,501.55,555a54.28,54.28,0,0,1-51-73.22,88.41,88.41,0,0,0-6.36,52l.09.47a89.34,89.34,0,0,0,158,38.87,124.11,124.11,0,0,0,6.82-10.5,123.38,123.38,0,0,0,0-123.76Z"/></clipPath><linearGradient id="linear-gradient-2" x1="1491.38" y1="-359.91" x2="1674.21" y2="-359.91" gradientTransform="translate(1583.01 1667.95) rotate(-120)" xlink:href="#linear-gradient"/><clipPath id="clip-path-2"><path class="cls-1" d="M396.23,439a124.13,124.13,0,0,0,.14,124A89.22,89.22,0,0,1,415.6,450.56l.06-.31.18.1a90,90,0,0,1,13-9.16,88.71,88.71,0,0,1,74.65-6.59l.46.16A89.06,89.06,0,0,1,550.58,474a54.45,54.45,0,0,1,.07,54.41,54.24,54.24,0,0,1-38,26.41,88.48,88.48,0,0,0,48.19-20.49l.37-.31a89.36,89.36,0,0,0-45.33-156.25,123.19,123.19,0,0,0-74.42,15.87A122.93,122.93,0,0,0,396.23,439Z"/></clipPath><linearGradient id="linear-gradient-3" x1="1704.72" y1="973.95" x2="1887.56" y2="973.95" gradientTransform="translate(2235.99 -536.95) rotate(120)" xlink:href="#linear-gradient"/><clipPath id="clip-path-3"><path class="cls-1" d="M503.26,623.14A124.11,124.11,0,0,0,610.61,561a89.23,89.23,0,0,1-107,39.59l-.3.11v-.21a88.8,88.8,0,0,1-57.46-68l-.09-.47a89.06,89.06,0,0,1,10.67-60,54.43,54.43,0,0,1,47.08-27.26,54.22,54.22,0,0,1,41.85,19.67,88.37,88.37,0,0,0-41.84-31.49l-.45-.17A89.35,89.35,0,0,0,390.39,550.1a124,124,0,0,0,13.05,22.51,123.37,123.37,0,0,0,99.82,50.53Z"/></clipPath><clipPath id="clip-path-4"><path class="cls-1" d="M297.49,438.15a123.21,123.21,0,0,0-106.73-61.64,88.66,88.66,0,0,1,87.17,72.59l.24.2-.18.11a88.44,88.44,0,0,1-30,83.43l-.36.31a88.31,88.31,0,0,1-56.9,20.68,54.07,54.07,0,0,1-50.68-72.91,88.28,88.28,0,0,0-7.71,36.15,89.2,89.2,0,0,0,1.4,15.61c0,.15,0,.31.08.47a88.63,88.63,0,0,0,156.86,38.7,123.16,123.16,0,0,0,6.78-133.7Z"/></clipPath><clipPath id="clip-path-5"><path class="cls-1" d="M84.31,439a123.18,123.18,0,0,0,0,123.25,88.66,88.66,0,0,1,19.27-111.79l.06-.31.18.1A88.56,88.56,0,0,1,191,434.44l.46.16a88.24,88.24,0,0,1,46.36,38.94,54.06,54.06,0,0,1-37.81,80.34,88.28,88.28,0,0,0,35.17-11.4,89.31,89.31,0,0,0,12.81-9l.37-.31A88.63,88.63,0,0,0,203.49,378q-6.19-.63-12.44-.64a126.26,126.26,0,0,0-13.45.72A123.22,123.22,0,0,0,84.31,439Z"/></clipPath><clipPath id="clip-path-6"><path class="cls-1" d="M191.24,623.49A123.2,123.2,0,0,0,298,561.87a88.67,88.67,0,0,1-106.45,39.21l-.3.1V601A88.53,88.53,0,0,1,134,533.3l-.09-.46a88.24,88.24,0,0,1,10.54-59.63,54.08,54.08,0,0,1,88.48-7.43A88.29,88.29,0,0,0,205.46,441a89.34,89.34,0,0,0-14.22-6.59l-.45-.17A88.63,88.63,0,0,0,78.84,550.77a124.47,124.47,0,0,0,5.67,11.09,123.13,123.13,0,0,0,106.73,61.63Z"/></clipPath><clipPath id="clip-path-7"><path class="cls-1" d="M915.53,437.54A124.39,124.39,0,0,0,807.75,375.3a89.54,89.54,0,0,1,88,73.3l.24.21-.18.1a89.37,89.37,0,0,1-30.26,84.25l-.37.31a89.15,89.15,0,0,1-57.46,20.89,54.61,54.61,0,0,1-51.17-73.63A89.25,89.25,0,0,0,750.2,533l.09.47a89.5,89.5,0,0,0,158.4,39.09q3.67-5.1,6.84-10.56a126.43,126.43,0,0,0,6.16-12.12,124.42,124.42,0,0,0-6.16-112.34Z"/></clipPath><clipPath id="clip-path-8"><path class="cls-1" d="M700.26,438.35a124.4,124.4,0,0,0,0,124.46,89.53,89.53,0,0,1,19.46-112.89l.06-.31.18.1a91.06,91.06,0,0,1,13.07-9.2,89.29,89.29,0,0,1,75-6.71l.46.16a89.14,89.14,0,0,1,46.82,39.32,54.61,54.61,0,0,1-38.18,81.13,89.28,89.28,0,0,0,35.51-11.51,90.56,90.56,0,0,0,12.94-9.1l.37-.31a89.51,89.51,0,0,0-45.35-156.73,125.36,125.36,0,0,0-12.57-.64,124.36,124.36,0,0,0-107.78,62.23Z"/></clipPath><clipPath id="clip-path-9"><path class="cls-1" d="M808.24,624.7A124.41,124.41,0,0,0,916,562.48a89.54,89.54,0,0,1-107.5,39.59l-.3.1V602a89.35,89.35,0,0,1-57.82-68.33c0-.16-.07-.31-.09-.47A89.14,89.14,0,0,1,761,473a54.61,54.61,0,0,1,89.35-7.5,89.34,89.34,0,0,0-42.08-31.66l-.45-.16a89.49,89.49,0,0,0-113,117.63,121.8,121.8,0,0,0,5.72,11.21A124.36,124.36,0,0,0,808.24,624.7Z"/></clipPath></defs><title>logo-01</title><rect class="cls-2" width="1000" height="1000"/><g class="cls-3"><rect width="1000" height="1000"/></g><path class="cls-4" d="M608.93,438.9a124,124,0,0,0-107.44-62,89.24,89.24,0,0,1,87.75,73.06l.24.2-.18.11a90.16,90.16,0,0,1,1.43,15.87,89,89,0,0,1-31.6,68.1l-.36.32a88.86,88.86,0,0,1-57.28,20.82,54.45,54.45,0,0,1-51-73.39A88.88,88.88,0,0,0,444.13,534c0,.16.06.32.08.48a89.22,89.22,0,0,0,157.9,39q3.66-5.09,6.82-10.53a125.52,125.52,0,0,0,6.13-12.08,124,124,0,0,0-6.13-112Z"/><g class="cls-5"><g class="cls-6"><polyline class="cls-7" points="591.48 310.23 613.04 409.88 634.6 509.54 656.17 609.2 677.73 708.86"/><polygon class="cls-7" points="674.95 709.81 588.69 311.18 594.26 309.27 680.52 707.9 674.95 709.81"/><polyline class="cls-7" points="582.64 313 583 314.31 604.26 412.59 625.84 512.3 647.4 611.95 668.97 711.61 668.9 711.63"/><polygon class="cls-7" points="664.23 703.04 582.08 323.39 587.38 321.57 669.53 701.22 664.23 703.04"/><polyline class="cls-7" points="573.81 315.78 574.22 317 595.49 415.29 617.07 515.05 638.64 614.71 660.2 714.37 660.07 714.41"/><polygon class="cls-7" points="653.51 696.27 575.47 335.6 580.51 333.88 658.55 694.54 653.51 696.27"/><polyline class="cls-7" points="564.98 318.56 565.44 319.68 586.71 417.99 608.31 517.8 629.87 617.46 651.44 717.12 651.24 717.19"/><polygon class="cls-7" points="642.79 689.5 568.85 347.81 573.63 346.18 647.56 687.86 642.79 689.5"/><polyline class="cls-7" points="556.15 321.33 556.66 322.37 577.93 420.69 599.54 520.56 621.11 620.22 642.67 719.88 642.4 719.97"/><polygon class="cls-7" points="632.07 682.73 562.24 360.03 566.75 358.48 636.58 681.18 632.07 682.73"/><polyline class="cls-7" points="547.32 324.06 547.88 325 569.16 423.34 590.78 523.26 612.34 622.92 633.9 722.57 633.57 722.69"/><polygon class="cls-7" points="621.35 675.9 555.63 372.18 559.87 370.73 625.59 674.45 621.35 675.9"/><polyline class="cls-7" points="538.49 326.82 539.1 327.68 560.38 426.03 582.01 526 603.58 625.66 625.14 725.32 624.74 725.45"/><polygon class="cls-7" points="610.63 669.12 549.02 384.38 553 383.02 614.61 667.76 610.63 669.12"/><polyline class="cls-7" points="529.65 329.59 530.32 330.36 551.6 428.73 573.25 528.74 594.81 628.4 616.37 728.06 615.91 728.22"/><polygon class="cls-7" points="599.91 662.34 542.4 396.58 546.12 395.31 603.62 661.07 599.91 662.34"/><polyline class="cls-7" points="520.82 332.35 521.54 333.03 542.83 431.42 564.48 531.49 586.04 631.15 607.61 730.8 607.08 730.99"/><polygon class="cls-7" points="589.19 655.55 535.79 408.78 539.24 407.6 592.64 654.37 589.19 655.55"/><polyline class="cls-7" points="511.99 335.12 512.76 335.71 534.05 434.11 555.72 534.23 577.28 633.89 598.84 733.55 598.25 733.75"/><polygon class="cls-7" points="578.47 648.77 529.18 420.98 532.36 419.89 581.65 647.68 578.47 648.77"/><polyline class="cls-7" points="503.16 337.88 503.98 338.39 525.27 436.8 546.95 536.97 568.51 636.63 590.08 736.29 589.41 736.52"/><polygon class="cls-7" points="567.75 641.99 522.57 433.18 525.49 432.18 570.67 640.99 567.75 641.99"/><polyline class="cls-7" points="494.33 340.65 495.2 341.06 516.5 439.49 538.18 539.72 559.75 639.38 581.31 739.03 580.58 739.28"/><polygon class="cls-7" points="557.03 635.21 515.96 445.38 518.61 444.48 559.68 634.3 557.03 635.21"/><polyline class="cls-7" points="485.49 343.42 486.42 343.74 507.72 442.18 529.42 542.46 550.98 642.12 572.55 741.78 571.75 742.05"/><polygon class="cls-7" points="546.31 628.43 509.34 457.58 511.73 456.77 548.7 627.61 546.31 628.43"/><polyline class="cls-7" points="476.66 346.18 477.64 346.42 498.94 444.88 520.65 545.2 542.22 644.86 563.78 744.52 562.92 744.81"/><polygon class="cls-7" points="535.59 621.64 502.73 469.78 504.85 469.06 537.71 620.92 535.59 621.64"/><polyline class="cls-7" points="467.83 348.95 468.86 349.1 490.17 447.57 511.89 547.95 533.45 647.61 555.01 747.26 554.09 747.58"/><polygon class="cls-7" points="524.87 614.86 496.12 481.98 497.98 481.35 526.73 614.23 524.87 614.86"/><polyline class="cls-7" points="459 351.71 460.08 351.77 481.39 450.26 503.12 550.69 524.69 650.35 546.25 750.01 545.25 750.35"/><polygon class="cls-7" points="514.15 608.08 489.51 494.19 491.1 493.64 515.74 607.53 514.15 608.08"/><polyline class="cls-7" points="450.17 354.49 451.3 354.46 472.61 452.96 494.36 553.45 515.92 653.11 537.48 752.76 536.42 753.13"/><polygon class="cls-7" points="503.43 601.31 482.89 506.4 484.22 505.95 504.76 600.86 503.43 601.31"/><polyline class="cls-7" points="441.33 357.31 442.52 357.19 463.84 455.7 485.59 556.24 507.15 655.89 528.72 755.55 527.59 755.94"/><polygon class="cls-7" points="492.71 594.58 476.28 518.64 477.34 518.28 493.77 594.21 492.71 594.58"/><polyline class="cls-7" points="432.5 360.12 433.74 359.91 455.06 458.44 476.82 559.02 498.39 658.68 519.95 758.34 518.76 758.75"/><polygon class="cls-7" points="481.99 587.84 469.67 530.89 470.46 530.62 482.79 587.57 481.99 587.84"/><polyline class="cls-7" points="423.67 362.93 424.96 362.63 446.28 461.17 468.06 561.81 489.62 661.47 511.19 761.13 509.93 761.56"/><polygon class="cls-7" points="471.27 581.1 463.06 543.13 463.59 542.95 471.8 580.92 471.27 581.1"/><polyline class="cls-7" points="414.84 365.77 416.18 365.38 437.51 463.94 459.29 564.63 480.86 664.29 502.42 763.95 501.1 764.4"/><polygon class="cls-7" points="460.55 574.39 456.44 555.41 456.71 555.32 460.82 574.3 460.55 574.39"/><polygon class="cls-7" points="492.26 767.18 449.14 567.86 406.01 368.55 407.4 368.07 450.53 567.39 493.66 766.7 492.26 767.18"/></g></g><path class="cls-8" d="M396.36,439.06a124,124,0,0,0,0,124.06,89.26,89.26,0,0,1,19.4-112.53l.06-.31.18.11a89.07,89.07,0,0,1,87.81-15.86l.45.15a88.85,88.85,0,0,1,46.67,39.2,54.43,54.43,0,0,1-38,80.87,89,89,0,0,0,48.29-20.55l.37-.31a89.21,89.21,0,0,0-45.2-156.22q-6.24-.63-12.53-.64a123.94,123.94,0,0,0-107.43,62Z"/><g class="cls-5"><g class="cls-9"><polyline class="cls-7" points="293.65 518.5 369.17 450 444.7 381.5 520.22 312.99 595.75 244.49"/><polygon class="cls-7" points="597.96 246.42 295.87 520.44 291.43 516.57 593.53 242.55 597.96 246.42"/><polyline class="cls-7" points="300.42 524.72 375.96 456.2 451.47 387.71 527.01 319.18 601.51 251.61 602.57 250.75 595.37 257.27"/><polygon class="cls-7" points="597.46 259.09 309.75 520.06 305.52 516.37 593.24 255.41 597.46 259.09"/><polyline class="cls-7" points="307.19 530.93 382.74 462.4 458.23 393.92 533.81 325.38 608.33 257.78 609.39 257.01 595 270.06"/><polygon class="cls-7" points="596.96 271.76 323.63 519.68 319.62 516.18 592.94 268.26 596.96 271.76"/><polyline class="cls-7" points="313.95 537.15 389.52 468.6 465 400.14 540.6 331.57 615.15 263.95 616.21 263.27 594.63 282.84"/><polygon class="cls-7" points="596.45 284.43 337.51 519.3 333.71 515.98 592.65 281.11 596.45 284.43"/><polyline class="cls-7" points="320.72 543.36 396.3 474.8 471.77 406.35 547.39 337.76 621.97 270.12 623.03 269.53 594.26 295.63"/><polygon class="cls-7" points="595.95 297.1 351.39 518.92 347.8 515.79 592.36 293.97 595.95 297.1"/><polyline class="cls-7" points="327.49 549.57 403.09 481 478.54 412.57 554.18 343.95 628.79 276.28 629.85 275.79 593.89 308.41"/><polygon class="cls-7" points="595.45 309.77 365.28 518.54 361.89 515.59 592.06 306.82 595.45 309.77"/><polyline class="cls-7" points="334.26 555.79 409.87 487.2 485.31 418.78 560.98 350.14 635.6 282.45 636.67 282.05 593.51 321.19"/><polygon class="cls-7" points="594.94 322.44 379.16 518.16 375.99 515.4 591.77 319.67 594.94 322.44"/><polyline class="cls-7" points="341.03 562 416.65 493.4 492.07 424.99 567.77 356.33 642.42 288.62 643.49 288.31 593.14 333.98"/><polygon class="cls-7" points="594.44 335.11 393.04 517.78 390.08 515.2 591.48 332.53 594.44 335.11"/><polyline class="cls-7" points="347.8 568.22 423.44 499.61 498.84 431.21 574.56 362.53 649.24 294.79 650.31 294.57 592.77 346.76"/><polygon class="cls-7" points="593.93 347.77 406.92 517.4 404.17 515.01 591.19 345.38 593.93 347.77"/><polyline class="cls-7" points="354.56 574.43 430.22 505.81 505.61 437.42 581.36 368.72 656.06 300.96 657.13 300.83 592.4 359.55"/><polygon class="cls-7" points="593.43 360.44 420.8 517.02 418.27 514.81 590.89 358.23 593.43 360.44"/><polyline class="cls-7" points="361.33 580.64 437 512.01 512.38 443.63 588.15 374.91 662.88 307.13 663.96 307.09 592.03 372.33"/><polygon class="cls-7" points="592.93 373.11 434.69 516.65 432.36 514.62 590.6 371.09 592.93 373.11"/><polyline class="cls-7" points="368.1 586.86 443.78 518.21 519.15 449.85 594.94 381.1 669.7 313.3 670.78 313.35 591.66 385.11"/><polygon class="cls-7" points="592.42 385.78 448.57 516.27 446.45 514.42 590.31 383.94 592.42 385.78"/><polyline class="cls-7" points="374.87 593.14 450.57 524.48 525.92 456.13 601.73 387.37 676.51 319.54 677.6 319.68 591.28 397.97"/><polygon class="cls-7" points="591.92 398.52 462.45 515.96 460.55 514.3 590.02 396.87 591.92 398.52"/><polyline class="cls-7" points="381.64 599.4 457.35 530.73 532.68 462.39 608.52 393.6 683.33 325.75 684.42 325.99 590.91 410.8"/><polygon class="cls-7" points="591.41 411.24 476.33 515.63 474.64 514.15 589.72 409.76 591.41 411.24"/><polyline class="cls-7" points="388.4 605.66 464.13 536.97 539.45 468.65 615.32 399.84 690.15 331.96 691.24 332.29 590.54 423.63"/><polygon class="cls-7" points="590.91 423.95 490.21 515.29 488.73 514 589.43 422.66 590.91 423.95"/><polyline class="cls-7" points="395.17 611.92 470.92 543.22 546.22 474.91 622.11 406.08 696.97 338.18 698.06 338.6 590.17 436.46"/><polygon class="cls-7" points="590.41 436.67 504.09 514.96 502.83 513.85 589.14 435.56 590.41 436.67"/><polyline class="cls-7" points="401.94 618.18 477.7 549.47 552.99 481.17 628.9 412.32 703.79 344.39 704.88 344.9 589.8 449.29"/><polygon class="cls-7" points="589.9 449.38 517.98 514.63 516.92 513.7 588.85 448.46 589.9 449.38"/><polyline class="cls-7" points="408.71 624.44 484.48 555.71 559.76 487.43 635.7 418.55 710.61 350.61 711.7 351.21 589.42 462.12"/><polygon class="cls-7" points="589.4 462.1 531.86 514.29 531.01 513.55 588.55 461.36 589.4 462.1"/><polyline class="cls-7" points="415.48 630.7 491.26 561.96 566.52 493.69 642.49 424.79 717.42 356.82 718.52 357.51 589.05 474.95"/><polygon class="cls-7" points="588.89 474.81 545.74 513.96 545.11 513.4 588.26 474.26 588.89 474.81"/><polyline class="cls-7" points="422.25 636.96 498.05 568.21 573.29 499.95 649.28 431.03 724.24 363.04 725.34 363.82 588.68 487.78"/><polygon class="cls-7" points="588.39 487.53 559.62 513.62 559.2 513.25 587.97 487.16 588.39 487.53"/><polyline class="cls-7" points="429.01 643.22 504.83 574.45 580.06 506.21 656.07 437.27 731.06 369.25 732.16 370.13 588.31 500.61"/><polygon class="cls-7" points="587.89 500.24 573.5 513.29 573.29 513.11 587.68 500.06 587.89 500.24"/><polygon class="cls-7" points="738.99 375.95 587.94 512.96 436.89 649.97 435.78 649 586.83 511.99 737.88 374.98 738.99 375.95"/></g></g><path class="cls-10" d="M503.24,623a124,124,0,0,0,107.45-62,89.26,89.26,0,0,1-107.15,39.46l-.3.1v-.21a89.05,89.05,0,0,1-57.64-68.11l-.09-.47a88.87,88.87,0,0,1,10.61-60,54.43,54.43,0,0,1,89.06-7.48,88.79,88.79,0,0,0-41.94-31.55l-.45-.17A89.22,89.22,0,0,0,390.1,549.81a124.59,124.59,0,0,0,13.11,22.53,124,124,0,0,0,100,50.67Z"/><g class="cls-5"><g class="cls-11"><polyline class="cls-7" points="623.4 672.23 526.31 641.08 429.22 609.92 332.14 578.77 235.05 547.61"/><polygon class="cls-7" points="235.61 544.72 623.97 669.34 622.83 675.12 234.48 550.5 235.61 544.72"/><polyline class="cls-7" points="625.4 663.26 528.29 632.1 431.22 600.95 334.1 569.79 238.33 539.06 237.06 538.58 246.31 541.54"/><polygon class="cls-7" points="246.84 538.83 616.7 657.51 615.62 663.01 245.76 544.33 246.84 538.83"/><polyline class="cls-7" points="627.4 654.29 530.27 623.13 433.22 591.98 336.07 560.81 240.26 530.07 239.07 529.54 257.56 535.47"/><polygon class="cls-7" points="258.06 532.93 609.43 645.67 608.4 650.9 257.04 538.16 258.06 532.93"/><polyline class="cls-7" points="629.39 645.32 532.25 614.15 435.22 583.02 338.03 551.83 242.2 521.08 241.08 520.5 268.82 529.4"/><polygon class="cls-7" points="269.29 527.03 602.16 633.84 601.19 638.8 268.31 531.98 269.29 527.03"/><polyline class="cls-7" points="631.39 636.36 534.23 605.18 437.21 574.05 340 542.85 244.13 512.09 243.09 511.46 280.08 523.33"/><polygon class="cls-7" points="280.51 521.13 594.89 622.01 593.97 626.69 279.59 525.81 280.51 521.13"/><polyline class="cls-7" points="633.39 627.39 536.21 596.2 439.21 565.08 341.96 533.88 246.06 503.1 245.1 502.43 291.33 517.26"/><polygon class="cls-7" points="291.73 515.23 587.62 610.18 586.76 614.58 290.87 519.64 291.73 515.23"/><polyline class="cls-7" points="635.38 618.42 538.18 587.23 441.21 556.11 343.93 524.9 248 494.11 247.11 493.39 302.59 511.19"/><polygon class="cls-7" points="302.96 509.33 580.35 598.35 579.54 602.47 302.15 513.46 302.96 509.33"/><polyline class="cls-7" points="637.38 609.45 540.16 578.25 443.2 547.14 345.9 515.92 249.93 485.12 249.12 484.35 313.85 505.12"/><polygon class="cls-7" points="314.18 503.44 573.08 586.51 572.33 590.37 313.42 507.29 314.18 503.44"/><polyline class="cls-7" points="639.38 600.48 542.14 569.28 445.2 538.17 347.86 506.94 251.86 476.13 251.13 475.32 325.11 499.05"/><polygon class="cls-7" points="325.4 497.54 565.81 574.68 565.11 578.26 324.7 501.12 325.4 497.54"/><polyline class="cls-7" points="641.38 591.51 544.12 560.3 447.2 529.21 349.83 497.96 253.79 467.15 253.15 466.28 336.36 492.98"/><polygon class="cls-7" points="336.63 491.64 558.54 562.85 557.89 566.15 335.98 494.94 336.63 491.64"/><polyline class="cls-7" points="643.37 582.54 546.1 551.33 449.2 520.24 351.8 488.98 255.73 458.16 255.16 457.24 347.62 486.91"/><polygon class="cls-7" points="347.85 485.74 551.27 551.02 550.68 554.04 347.26 488.77 347.85 485.74"/><polyline class="cls-7" points="645.37 573.58 548.08 542.36 451.19 511.27 353.76 480 257.66 449.17 257.17 448.2 358.88 480.84"/><polygon class="cls-7" points="359.07 479.85 544 539.18 543.46 541.94 358.53 482.6 359.07 479.85"/><polyline class="cls-7" points="647.37 564.61 550.05 533.38 453.19 502.3 355.73 471.03 259.59 440.18 259.18 439.17 370.13 474.77"/><polygon class="cls-7" points="370.3 473.95 536.73 527.35 536.25 529.83 369.81 476.42 370.3 473.95"/><polyline class="cls-7" points="649.37 555.64 552.03 524.41 455.19 493.33 357.69 462.05 261.53 431.19 261.19 430.13 381.39 468.7"/><polygon class="cls-7" points="381.52 468.05 529.47 515.52 529.03 517.72 381.09 470.25 381.52 468.05"/><polyline class="cls-7" points="651.36 546.67 554.01 515.43 457.19 484.36 359.66 453.07 263.46 422.2 263.2 421.09 392.65 462.63"/><polygon class="cls-7" points="392.74 462.15 522.2 503.69 521.82 505.62 392.37 464.08 392.74 462.15"/><polyline class="cls-7" points="653.36 537.7 555.99 506.46 459.18 475.39 361.62 444.09 265.39 413.21 265.21 412.06 403.91 456.56"/><polygon class="cls-7" points="403.97 456.25 514.93 491.86 514.6 493.51 403.64 457.9 403.97 456.25"/><polyline class="cls-7" points="655.36 528.74 557.97 497.48 461.18 466.43 363.59 435.11 267.32 404.22 267.22 403.02 415.17 450.49"/><polygon class="cls-7" points="415.19 450.35 507.66 480.02 507.39 481.4 414.92 451.73 415.19 450.35"/><polyline class="cls-7" points="657.35 519.77 559.95 488.51 463.18 457.46 365.56 426.13 269.26 395.23 269.23 393.98 426.42 444.42"/><polygon class="cls-7" points="426.42 444.46 500.39 468.19 500.17 469.29 426.2 445.56 426.42 444.46"/><polyline class="cls-7" points="659.35 510.8 561.92 479.54 465.18 448.49 367.52 417.15 271.19 386.24 271.24 384.94 437.68 438.35"/><polygon class="cls-7" points="437.64 438.56 493.12 456.36 492.95 457.19 437.48 439.38 437.64 438.56"/><polyline class="cls-7" points="661.41 501.83 563.97 470.56 467.24 439.52 369.55 408.18 273.19 377.25 273.32 375.91 449 432.28"/><polygon class="cls-7" points="448.93 432.66 485.91 444.53 485.81 445.08 448.82 433.21 448.93 432.66"/><polyline class="cls-7" points="663.45 492.86 565.99 461.59 469.27 430.55 371.56 399.2 275.16 368.27 275.37 366.87 460.3 426.21"/><polygon class="cls-7" points="460.19 426.76 478.68 432.69 478.63 432.97 460.13 427.04 460.19 426.76"/><polygon class="cls-7" points="277.27 357.83 471.45 420.14 665.63 482.45 665.34 483.89 471.17 421.58 276.99 359.28 277.27 357.83"/></g></g><path class="cls-12" d="M190.9,378.26A121.74,121.74,0,1,0,312.64,500,121.74,121.74,0,0,0,190.9,378.26Zm0,175.13A53.39,53.39,0,1,1,244.29,500,53.39,53.39,0,0,1,190.9,553.39Z"/><g class="cls-13"><line class="cls-14" x1="192.62" y1="757.44" x2="102.39" y2="422.3"/><line class="cls-15" x1="201.21" y1="754.85" x2="110.98" y2="419.71"/><line class="cls-16" x1="209.81" y1="752.25" x2="119.58" y2="417.12"/><line class="cls-17" x1="218.4" y1="749.66" x2="128.17" y2="414.52"/><line class="cls-18" x1="226.99" y1="747.07" x2="136.76" y2="411.93"/><line class="cls-19" x1="235.59" y1="744.48" x2="145.36" y2="409.34"/><line class="cls-20" x1="244.18" y1="741.89" x2="153.95" y2="406.75"/><line class="cls-21" x1="252.77" y1="739.3" x2="162.54" y2="404.16"/><line class="cls-22" x1="261.36" y1="736.7" x2="171.14" y2="401.57"/><line class="cls-23" x1="269.96" y1="734.11" x2="179.73" y2="398.98"/><line class="cls-24" x1="278.55" y1="731.52" x2="188.32" y2="396.38"/><line class="cls-25" x1="287.14" y1="728.93" x2="196.92" y2="393.79"/><line class="cls-26" x1="295.74" y1="726.34" x2="205.51" y2="391.2"/><line class="cls-27" x1="304.33" y1="723.75" x2="214.1" y2="388.61"/><line class="cls-28" x1="312.92" y1="721.15" x2="222.7" y2="386.02"/><line class="cls-29" x1="321.52" y1="718.56" x2="231.29" y2="383.43"/><line class="cls-30" x1="330.11" y1="715.97" x2="239.88" y2="380.83"/><line class="cls-31" x1="338.7" y1="713.38" x2="248.48" y2="378.24"/><line class="cls-32" x1="347.3" y1="710.79" x2="257.07" y2="375.65"/><line class="cls-33" x1="355.89" y1="708.2" x2="265.66" y2="373.06"/><line class="cls-34" x1="364.48" y1="705.6" x2="274.25" y2="370.47"/><line class="cls-35" x1="373.08" y1="703.01" x2="282.85" y2="367.88"/></g><g class="cls-36"><line class="cls-14" x1="413.26" y1="370.12" x2="168.13" y2="615.83"/><line class="cls-15" x1="406.72" y1="363.98" x2="161.59" y2="609.68"/><line class="cls-16" x1="400.17" y1="357.83" x2="155.05" y2="603.54"/><line class="cls-17" x1="393.63" y1="351.68" x2="148.51" y2="597.39"/><line class="cls-18" x1="387.09" y1="345.54" x2="141.97" y2="591.25"/><line class="cls-19" x1="380.55" y1="339.39" x2="135.43" y2="585.1"/><line class="cls-20" x1="374.01" y1="333.24" x2="128.89" y2="578.95"/><line class="cls-21" x1="367.47" y1="327.1" x2="122.35" y2="572.81"/><line class="cls-22" x1="360.93" y1="320.95" x2="115.81" y2="566.66"/><line class="cls-23" x1="354.39" y1="314.81" x2="109.26" y2="560.52"/><line class="cls-24" x1="347.85" y1="308.66" x2="102.72" y2="554.37"/><line class="cls-25" x1="341.31" y1="302.51" x2="96.18" y2="548.22"/><line class="cls-26" x1="334.76" y1="296.37" x2="89.64" y2="542.08"/><line class="cls-27" x1="328.22" y1="290.22" x2="83.1" y2="535.93"/><line class="cls-28" x1="321.68" y1="284.08" x2="76.56" y2="529.78"/><line class="cls-29" x1="315.14" y1="277.93" x2="70.02" y2="523.64"/><line class="cls-30" x1="308.6" y1="271.78" x2="63.48" y2="517.49"/><line class="cls-31" x1="302.06" y1="265.64" x2="56.94" y2="511.35"/><line class="cls-32" x1="295.52" y1="259.49" x2="50.4" y2="505.2"/><line class="cls-33" x1="288.98" y1="253.34" x2="43.85" y2="499.05"/><line class="cls-34" x1="282.44" y1="247.2" x2="37.31" y2="492.91"/><line class="cls-35" x1="275.89" y1="241.05" x2="30.77" y2="486.76"/></g><g class="cls-37"><line class="cls-14" x1="-32.83" y1="373.02" x2="302.52" y2="462.45"/><line class="cls-15" x1="-34.88" y1="381.76" x2="300.47" y2="471.19"/><line class="cls-16" x1="-36.94" y1="390.5" x2="298.42" y2="479.93"/><line class="cls-17" x1="-38.99" y1="399.24" x2="296.36" y2="488.66"/><line class="cls-18" x1="-41.04" y1="407.97" x2="294.31" y2="497.4"/><line class="cls-19" x1="-43.09" y1="416.71" x2="292.26" y2="506.14"/><line class="cls-20" x1="-45.14" y1="425.45" x2="290.21" y2="514.88"/><line class="cls-21" x1="-47.2" y1="434.19" x2="288.16" y2="523.62"/><line class="cls-22" x1="-49.25" y1="442.93" x2="286.1" y2="532.35"/><line class="cls-23" x1="-51.3" y1="451.66" x2="284.05" y2="541.09"/><line class="cls-24" x1="-53.35" y1="460.4" x2="282" y2="549.83"/><line class="cls-25" x1="-55.41" y1="469.14" x2="279.95" y2="558.57"/><line class="cls-26" x1="-57.46" y1="477.88" x2="277.89" y2="567.3"/><line class="cls-27" x1="-59.51" y1="486.61" x2="275.84" y2="576.04"/><line class="cls-28" x1="-61.56" y1="495.35" x2="273.79" y2="584.78"/><line class="cls-29" x1="-63.61" y1="504.09" x2="271.74" y2="593.52"/><line class="cls-30" x1="-65.67" y1="512.83" x2="269.69" y2="602.26"/><line class="cls-31" x1="-67.72" y1="521.57" x2="267.63" y2="610.99"/><line class="cls-32" x1="-69.77" y1="530.3" x2="265.58" y2="619.73"/><line class="cls-33" x1="-71.82" y1="539.04" x2="263.53" y2="628.47"/><line class="cls-34" x1="-73.88" y1="547.78" x2="261.48" y2="637.21"/><line class="cls-35" x1="-75.93" y1="556.52" x2="259.42" y2="645.94"/></g><g class="cls-38"><line class="cls-14" x1="809.63" y1="759.96" x2="718.52" y2="421.54"/><line class="cls-15" x1="818.31" y1="757.35" x2="727.2" y2="418.92"/><line class="cls-16" x1="826.99" y1="754.73" x2="735.87" y2="416.3"/><line class="cls-17" x1="835.67" y1="752.11" x2="744.55" y2="413.69"/><line class="cls-18" x1="844.34" y1="749.49" x2="753.23" y2="411.07"/><line class="cls-19" x1="853.02" y1="746.88" x2="761.91" y2="408.45"/><line class="cls-20" x1="861.7" y1="744.26" x2="770.58" y2="405.84"/><line class="cls-21" x1="870.38" y1="741.64" x2="779.26" y2="403.22"/><line class="cls-22" x1="879.05" y1="739.03" x2="787.94" y2="400.6"/><line class="cls-23" x1="887.73" y1="736.41" x2="796.62" y2="397.98"/><line class="cls-24" x1="896.41" y1="733.79" x2="805.29" y2="395.37"/><line class="cls-25" x1="905.09" y1="731.18" x2="813.97" y2="392.75"/><line class="cls-26" x1="913.76" y1="728.56" x2="822.65" y2="390.13"/><line class="cls-27" x1="922.44" y1="725.94" x2="831.33" y2="387.52"/><line class="cls-28" x1="931.12" y1="723.32" x2="840" y2="384.9"/><line class="cls-29" x1="939.8" y1="720.71" x2="848.68" y2="382.28"/><line class="cls-30" x1="948.47" y1="718.09" x2="857.36" y2="379.66"/><line class="cls-31" x1="957.15" y1="715.47" x2="866.04" y2="377.05"/><line class="cls-32" x1="965.83" y1="712.86" x2="874.71" y2="374.43"/><line class="cls-33" x1="974.51" y1="710.24" x2="883.39" y2="371.81"/><line class="cls-34" x1="983.18" y1="707.62" x2="892.07" y2="369.2"/><line class="cls-35" x1="991.86" y1="705" x2="900.75" y2="366.58"/></g><g class="cls-39"><line class="cls-14" x1="1032.43" y1="368.85" x2="784.91" y2="616.97"/><line class="cls-15" x1="1025.83" y1="362.64" x2="778.3" y2="610.76"/><line class="cls-16" x1="1019.22" y1="356.43" x2="771.7" y2="604.55"/><line class="cls-17" x1="1012.62" y1="350.23" x2="765.09" y2="598.35"/><line class="cls-18" x1="1006.01" y1="344.02" x2="758.49" y2="592.14"/><line class="cls-19" x1="999.41" y1="337.82" x2="751.88" y2="585.94"/><line class="cls-20" x1="992.8" y1="331.61" x2="745.28" y2="579.73"/><line class="cls-21" x1="986.2" y1="325.4" x2="738.67" y2="573.52"/><line class="cls-22" x1="979.59" y1="319.2" x2="732.07" y2="567.32"/><line class="cls-23" x1="972.99" y1="312.99" x2="725.46" y2="561.11"/><line class="cls-24" x1="966.38" y1="306.78" x2="718.86" y2="554.9"/><line class="cls-25" x1="959.78" y1="300.58" x2="712.25" y2="548.7"/><line class="cls-26" x1="953.17" y1="294.37" x2="705.64" y2="542.49"/><line class="cls-27" x1="946.57" y1="288.16" x2="699.04" y2="536.28"/><line class="cls-28" x1="939.96" y1="281.96" x2="692.43" y2="530.08"/><line class="cls-29" x1="933.36" y1="275.75" x2="685.83" y2="523.87"/><line class="cls-30" x1="926.75" y1="269.54" x2="679.22" y2="517.66"/><line class="cls-31" x1="920.15" y1="263.34" x2="672.62" y2="511.46"/><line class="cls-32" x1="913.54" y1="257.13" x2="666.01" y2="505.25"/><line class="cls-33" x1="906.94" y1="250.92" x2="659.41" y2="499.04"/><line class="cls-34" x1="900.33" y1="244.72" x2="652.8" y2="492.84"/><line class="cls-35" x1="893.73" y1="238.51" x2="646.2" y2="486.63"/></g><g class="cls-40"><line class="cls-14" x1="581.97" y1="371.78" x2="920.61" y2="462.08"/><line class="cls-15" x1="579.9" y1="380.6" x2="918.54" y2="470.91"/><line class="cls-16" x1="577.83" y1="389.42" x2="916.47" y2="479.73"/><line class="cls-17" x1="575.75" y1="398.25" x2="914.4" y2="488.55"/><line class="cls-18" x1="573.68" y1="407.07" x2="912.32" y2="497.38"/><line class="cls-19" x1="571.61" y1="415.9" x2="910.25" y2="506.2"/><line class="cls-20" x1="569.54" y1="424.72" x2="908.18" y2="515.02"/><line class="cls-21" x1="567.46" y1="433.54" x2="906.11" y2="523.85"/><line class="cls-22" x1="565.39" y1="442.37" x2="904.03" y2="532.67"/><line class="cls-23" x1="563.32" y1="451.19" x2="901.96" y2="541.49"/><line class="cls-24" x1="561.25" y1="460.01" x2="899.89" y2="550.32"/><line class="cls-25" x1="559.17" y1="468.84" x2="897.82" y2="559.14"/><line class="cls-26" x1="557.1" y1="477.66" x2="895.74" y2="567.97"/><line class="cls-27" x1="555.03" y1="486.48" x2="893.67" y2="576.79"/><line class="cls-28" x1="552.96" y1="495.31" x2="891.6" y2="585.61"/><line class="cls-29" x1="550.89" y1="504.13" x2="889.53" y2="594.44"/><line class="cls-30" x1="548.81" y1="512.95" x2="887.45" y2="603.26"/><line class="cls-31" x1="546.74" y1="521.78" x2="885.38" y2="612.08"/><line class="cls-32" x1="544.67" y1="530.6" x2="883.31" y2="620.91"/><line class="cls-33" x1="542.6" y1="539.42" x2="881.24" y2="629.73"/><line class="cls-34" x1="540.52" y1="548.25" x2="879.17" y2="638.55"/><line class="cls-35" x1="538.45" y1="557.07" x2="877.09" y2="647.38"/></g></svg>